<svg xmlns="http://www.w3.org/2000/svg" xmlns:xlink="http://www.w3.org/1999/xlink" viewBox="0 0 1283.76 438.2"><defs><style>.cls-1{fill:none;}.cls-2{fill:url(#radial-gradient);}.cls-3{fill:url(#radial-gradient-9);}.cls-4{fill:url(#radial-gradient-11);}.cls-5{fill:url(#radial-gradient-37);}.cls-6{fill:#fff;}.cls-7{fill:url(#radial-gradient-42);}.cls-8{fill:url(#radial-gradient-54);}.cls-9{fill:url(#radial-gradient-58);}.cls-10{fill:url(#radial-gradient-63);}.cls-11{fill:url(#radial-gradient-66);}.cls-12{font-size:119.71px;font-family:Montserrat-Bold, Montserrat;font-weight:700;}.cls-12,.cls-13{fill:#171914;}.cls-13{font-size:78.29px;font-family:Montserrat-Regular, Montserrat;}.cls-14{letter-spacing:-0.02em;}.cls-15{letter-spacing:-0.04em;}.cls-16{letter-spacing:0em;}</style><radialGradient id="radial-gradient" cx="313.17" cy="47.75" r="497.62" gradientUnits="userSpaceOnUse"><stop offset="0" stop-color="#84bf41"/><stop offset="0.02" stop-color="#7dbb41"/><stop offset="0.14" stop-color="#5ba941"/><stop offset="0.27" stop-color="#3f9940"/><stop offset="0.41" stop-color="#298e40"/><stop offset="0.56" stop-color="#1a8540"/><stop offset="0.74" stop-color="#118140"/><stop offset="1" stop-color="#0e7f40"/></radialGradient><radialGradient id="radial-gradient-9" cx="362" cy="80.74" r="604.88" xlink:href="#radial-gradient"/><radialGradient id="radial-gradient-11" cx="-4358.3" cy="-2833.7" r="218.98" gradientTransform="matrix(-0.41, -0.91, -0.91, 0.41, -4164.35, -2687.06)" gradientUnits="userSpaceOnUse"><stop offset="0" stop-color="#84bf41"/><stop offset="1" stop-color="#0e7f40"/></radialGradient><radialGradient id="radial-gradient-37" cx="349.63" cy="314.07" r="70.83" xlink:href="#radial-gradient"/><radialGradient id="radial-gradient-42" cx="-3744.03" cy="-2755.82" r="168.16" gradientTransform="matrix(-0.23, -0.76, -0.95, 0.28, -3311.57, -1811.72)" xlink:href="#radial-gradient-11"/><radialGradient id="radial-gradient-54" cx="-4.48" cy="-199.93" r="50.9" gradientTransform="translate(215.69 574.91) rotate(7.71)" xlink:href="#radial-gradient"/><radialGradient id="radial-gradient-58" cx="113.3" cy="233.58" r="17.49" gradientTransform="matrix(1, 0, 0, 1, 0, 0)" xlink:href="#radial-gradient-11"/><radialGradient id="radial-gradient-63" cx="178.08" cy="266.94" r="54.99" xlink:href="#radial-gradient"/><radialGradient id="radial-gradient-66" cx="22.18" cy="155.96" r="50.98" xlink:href="#radial-gradient"/></defs><g id="Layer_2" data-name="Layer 2"><g id="Layer_9" data-name="Layer 9"><path class="cls-1" d="M229.05,365.32a15.73,15.73,0,0,1-16.58-6.91l-30.78,8c7.21,4.17,14.75,8.43,22.68,12.83,0,0,23.29-16.46,39.17,10.48a29.29,29.29,0,0,1,4.24,6.84l48.71-13.71a39.76,39.76,0,0,1-2-3.89,41.55,41.55,0,0,1-2.38-6.91L239,358.39A15.68,15.68,0,0,1,229.05,365.32Z"/><path class="cls-1" d="M137.88,379.15l7.56,1.92q-3-1.81-5.84-3.62l-1.61.42A11.05,11.05,0,0,1,137.88,379.15Z"/><path class="cls-1" d="M111.67,322.45l-6.54-27a15.6,15.6,0,0,1-12.69-22.86L34.19,216.74l-.7.4,15.08,53.59C60,282.61,79.07,299.82,111.67,322.45Z"/><path class="cls-1" d="M210.44,353.72c-.05-.17-.12-.31-.16-.47a15.55,15.55,0,0,1,.14-7l-93-55.19a15.56,15.56,0,0,1-7.14,4l7.67,31.72c16,10.85,35,22.88,57.59,36.1Z"/><path class="cls-1" d="M122.9,368.88l-.61-2.52c-3-1.95-5.89-3.88-8.71-5.78l8.8,8.59C122.55,369.07,122.72,369,122.9,368.88Z"/><path class="cls-1" d="M231.1,414.62a14.2,14.2,0,0,1-1.71,2.66,12.44,12.44,0,0,0,2.07-2.77Z"/><path class="cls-1" d="M197.71,390.33c.52-.67,1.09-1.31,1.67-1.93-4-1.52-10.07-4-17.8-7.53C188,384.69,193.51,387.91,197.71,390.33Z"/><path class="cls-1" d="M27.37,244s-2.62-1,6.12,9.4c1.63,1.94,3.94,5,7.49,9.07l-5-17.72A28.61,28.61,0,0,0,27.37,244Z"/><path class="cls-1" d="M93.08,229.62l.26.19c-10.12-7.57-19.13-14.62-27.16-21.1l.08.07S57,205.28,45,196.13L37.71,203a10.39,10.39,0,0,1,1.12,2.82,10.24,10.24,0,0,1-1.14,7.24l57.77,55.36a15.5,15.5,0,0,1,6.06-3.62V238.54A52.73,52.73,0,0,1,93.08,229.62Z"/><path class="cls-1" d="M241,346.2c0,.13.09.23.12.36a15.76,15.76,0,0,1-.16,7.11l50.1,12.93a41,41,0,0,1,1.13-15.12q-16.51-8.49-31.86-16.74Z"/><path class="cls-1" d="M151.38,138.46H254.69q23.57,0,34.9,12.83t11.32,33.62a56.18,56.18,0,0,1-.81,10.29,30.42,30.42,0,0,1-2.43,7.62,35.47,35.47,0,0,1-3.92,6.36c-1.55,2-3.24,4-5.09,6l5.09,5.08a22.51,22.51,0,0,1,6.35,12.14,53.76,53.76,0,0,1,.81,10.28v43.68H265.55v-43a16.51,16.51,0,0,0-1.73-6.58q-1.74-3.81-8-5.2H186.51v15c29.16,17.5,65,37.68,109.39,61.14l36.93-21.91a16.48,16.48,0,0,1-.89-2.76A15.77,15.77,0,0,1,344,264.34c.28-.06.55,0,.82-.1V152.16A15.76,15.76,0,0,1,331.94,140a15.57,15.57,0,0,1,1-9.67L237.8,73.84a15.59,15.59,0,0,1-24.1,0l-95.21,56.47a15.59,15.59,0,0,1,1,3A15.78,15.78,0,0,1,107.39,152c-.27.06-.54.05-.81.09v41.64c12.14,9.16,26.75,19.4,44.8,31.06Z"/><path class="cls-1" d="M364.83,333.92l21.83-22.38a10.13,10.13,0,0,1-2.28-4.5,10.3,10.3,0,0,1,7.88-12.25,10.16,10.16,0,0,1,4.79.15l20.77-81.57a10.71,10.71,0,0,1-1.3-.68L360,270.41a15.61,15.61,0,0,1,2.74,6,15.78,15.78,0,0,1-12.08,18.77,15.54,15.54,0,0,1-4.34.26l-4,17.42C350.27,316.34,358.2,322.75,364.83,333.92Z"/><path class="cls-1" d="M337.6,311.07l3.82-16.7a15.77,15.77,0,0,1-5.86-4.24l-34.42,20.41,4.11,2.17S320.66,305.91,337.6,311.07Z"/><path class="cls-1" d="M176.24,286.37c5.27,3.7,16.18,11.46,16.18,11.46l-29.16-11.46H151.38V270.32q-16.59-10.85-30.88-20.87l.2.15a60,60,0,0,1-14.12-7.21V264a15.65,15.65,0,0,1,13.79,22.92l92,54.56a15.71,15.71,0,0,1,26.63,0l16.14-9.57c-29.37-15.93-55.46-31.19-78.59-45.57Z"/><path class="cls-1" d="M34.5,199.1,41,192.94c-1.32-1.1-2.66-2.28-4-3.51Z"/><path class="cls-1" d="M71.33,164.16,91,145.48a15.75,15.75,0,0,1,9.68-24.29,15.8,15.8,0,0,1,4.15-.28L120.7,47.45l-.18-.1L63.29,106a10.44,10.44,0,0,1,1.29,3.13,10.29,10.29,0,0,1-7.88,12.25,9.91,9.91,0,0,1-2.47.21l-5,19.53C55.41,148,62.2,155.47,71.33,164.16Z"/><path class="cls-1" d="M29.78,120.22s2.72,2.48,15.4,16.43h0l4.19-16.42-1.21,4.6S35.86,118.79,29.78,120.22Z"/><path class="cls-1" d="M261.27,196.12a10.56,10.56,0,0,0,3-3.46,13.4,13.4,0,0,0,1.38-3.93,19,19,0,0,0,.35-3.35,25,25,0,0,0-.35-3.7,12.82,12.82,0,0,0-1.61-4.51,10.73,10.73,0,0,0-3.7-3.7,12.46,12.46,0,0,0-6.59-1.5H186.51v26.12h69.8A10.73,10.73,0,0,0,261.27,196.12Z"/><path class="cls-1" d="M233.79,16.62a10.22,10.22,0,0,1-16.81-.9L136.24,38.43l75.08,19A15.72,15.72,0,0,1,240,57l71.33-20.61Z"/><path class="cls-1" d="M412.6,199l-55.43-50.13A15.47,15.47,0,0,1,350.7,152c-.27.06-.54.05-.81.09V264.21a15.82,15.82,0,0,1,6.52,2.68l56.5-57.74A10.06,10.06,0,0,1,411.6,206,10.21,10.21,0,0,1,412.6,199Z"/><path class="cls-1" d="M384.38,111.08a10.21,10.21,0,0,1,1.88-8.36l-59-57.53L346.08,121a15.73,15.73,0,0,1,14.53,24.23L416,195.25c.25-.16.52-.3.79-.44L395.45,119.1A10.27,10.27,0,0,1,384.38,111.08Z"/><path class="cls-1" d="M347.92,358.51a18.82,18.82,0,0,1,.37,3.55,19.47,19.47,0,0,1-3,10.3,17,17,0,0,0,3.06-14.31Z"/><path class="cls-1" d="M313.49,41,241.36,61.84a15.66,15.66,0,0,1-.92,7.69L335.7,126a15.58,15.58,0,0,1,5.46-3.91l-18.88-76A10.29,10.29,0,0,1,313.49,41Z"/><path class="cls-1" d="M49.14,120.07l.23.16C49.28,120.18,49.22,120.12,49.14,120.07Z"/><path class="cls-1" d="M210.12,62.39,134.29,43.15a10.24,10.24,0,0,1-8.64,5.37l-15.84,73.41a15.75,15.75,0,0,1,5.87,4.11l95.44-56.6a13.59,13.59,0,0,1-1-7Z"/><path class="cls-1" d="M346.14,353.08c-.32-.48-.57-1-.92-1.48.31.5.57,1,.85,1.56Z"/><path class="cls-1" d="M101.52,152.16a15.83,15.83,0,0,1-7-3L75,167.63c7.19,6.64,15.79,14,26.49,22.27Z"/><path class="cls-2" d="M247.78,396.6a28.28,28.28,0,0,1,1.36,3.61c.12.39.19.79.29,1.18l50.08-14.09a41.33,41.33,0,0,1-3-4.41Z"/><path class="cls-2" d="M37.69,233.66c1.37,6.88,1.31,8.25,1.31,8.25l1.31,3.87s-1.87-.55-4.32-1.06l5,17.72c2.06,2.39,4.58,5.16,7.59,8.29L33.49,217.14l.7-.4,58.25,55.82a15.6,15.6,0,0,0,12.69,22.86l6.54,27q3,2.12,6.24,4.29L110.24,295a15.56,15.56,0,0,0,7.14-4l93,55.19a15.55,15.55,0,0,0-.14,7c0,.16.11.3.16.47l-34.94,9.12c2.05,1.2,4.08,2.4,6.19,3.61l30.78-8a15.73,15.73,0,0,0,26.53,0l53.08,13.7a41.68,41.68,0,0,1-1-5.49L241,353.67a15.76,15.76,0,0,0,.16-7.11c0-.13-.09-.23-.12-.36l19.33-11.46-5.2-2.8L239,341.51a15.71,15.71,0,0,0-26.63,0l-92-54.56A15.65,15.65,0,0,0,106.58,264V242.39a58.48,58.48,0,0,1-5.06-3.85v26.29a15.5,15.5,0,0,0-6.06,3.62L37.69,213.09a10.24,10.24,0,0,0,1.14-7.24A10.39,10.39,0,0,0,37.71,203l7.28-6.9c-1.31-1-2.64-2-4-3.19L34.5,199.1,37,189.43q-2.09-1.91-4.2-4l-3.16,12.41a10,10,0,0,0-3,.15,10.29,10.29,0,0,0,2,20.34l2.74,9.74c1.38.41,2.82.89,4.4,1.49C35.7,229.54,36.6,228.18,37.69,233.66Z"/><path class="cls-2" d="M347.92,358.51l.45-.46a16.28,16.28,0,0,0-1-3,14.43,14.43,0,0,0-1.24-2l-.07.08A19.49,19.49,0,0,1,347.92,358.51Z"/><path class="cls-2" d="M44.45,310.48a10.29,10.29,0,0,0,12.25,7.88h0c-4.53-3.75-8.67-7.3-12.46-10.63A9.93,9.93,0,0,0,44.45,310.48Z"/><path class="cls-2" d="M232.51,410.23a13.62,13.62,0,0,1-1.41,4.39l.36-.11a12,12,0,0,0,1.07-9.34,11.59,11.59,0,0,0-1.2-2.68A14.06,14.06,0,0,1,232.51,410.23Z"/><path class="cls-2" d="M59.68,102.48a10.39,10.39,0,0,0-3.82-1.31c1.08.37,2.09.69,3.22,1.1Z"/><path class="cls-2" d="M431.73,201.63a10.29,10.29,0,0,0-10.08-8.11L400.23,117.4a10.29,10.29,0,0,0-8-18.57,10.07,10.07,0,0,0-2.05.68L330.83,41.59a10.19,10.19,0,0,0,1.57-8A10.27,10.27,0,0,0,313,31.56L235.84,11.92A9.56,9.56,0,0,0,236,10.3a10.31,10.31,0,0,0-20.61,0c0,.2,0,.39.06.59l-81,22.79A10.28,10.28,0,1,0,116.72,44l-57,58.48-.6-.21c-2.09-.68-9.44-2.52-13.15,4-4.41,7.69,1.94,12.9,3.21,13.84.08.05.14.11.23.16l-4.19,16.42,4.08,4.5,5-19.53a9.91,9.91,0,0,0,2.47-.21,10.29,10.29,0,0,0,7.88-12.25A10.44,10.44,0,0,0,63.29,106l57.23-58.68.18.1-15.85,73.46a15.58,15.58,0,0,0-16.22,19A15.62,15.62,0,0,0,91,145.48L71.33,164.16c1.19,1.14,2.42,2.29,3.7,3.47l19.51-18.51a15.83,15.83,0,0,0,7,3V189.9c1.63,1.26,3.33,2.55,5.06,3.86V152.12c.27,0,.54,0,.81-.09a15.78,15.78,0,0,0,12.08-18.76,15.59,15.59,0,0,0-1-3L213.7,73.79a15.59,15.59,0,0,0,24.1,0L333,130.28a15.57,15.57,0,0,0-1,9.67,15.76,15.76,0,0,0,12.89,12.21V264.24c-.27.05-.54,0-.82.1a15.77,15.77,0,0,0-12.07,18.76,16.48,16.48,0,0,0,.89,2.76L295.9,307.77l5.24,2.77,34.42-20.41a15.77,15.77,0,0,0,5.86,4.24l-3.82,16.7a41.71,41.71,0,0,1,4.78,1.79l4-17.42a15.54,15.54,0,0,0,4.34-.26,15.78,15.78,0,0,0,12.08-18.77,15.61,15.61,0,0,0-2.74-6l56.48-57.72a10.71,10.71,0,0,0,1.3.68l-20.77,81.57a10.16,10.16,0,0,0-4.79-.15A10.3,10.3,0,0,0,384.38,307a10.13,10.13,0,0,0,2.28,4.5l-21.83,22.38c.87,1.46,1.71,3,2.53,4.65l23.49-24.08a10.28,10.28,0,0,0,10.77-17L422.88,214c.33,0,.65,0,1-.11A10.3,10.3,0,0,0,431.73,201.63ZM115.68,126a15.75,15.75,0,0,0-5.87-4.11l15.84-73.41a10.24,10.24,0,0,0,8.64-5.37l75.83,19.24a13.59,13.59,0,0,0,1,7ZM222.43,48.31a15.75,15.75,0,0,0-11.11,9.16l-75.08-19L217,15.72a10.22,10.22,0,0,0,16.81.9l77.53,19.74L240,57A15.74,15.74,0,0,0,222.43,48.31ZM335.7,126l-95.26-56.5a15.66,15.66,0,0,0,.92-7.69L313.49,41a10.29,10.29,0,0,0,8.79,5.1l18.88,76A15.58,15.58,0,0,0,335.7,126Zm20.71,140.86a15.82,15.82,0,0,0-6.52-2.68V152.12c.27,0,.54,0,.81-.09a15.47,15.47,0,0,0,6.47-3.14L412.6,199a10.21,10.21,0,0,0-1,7,10.06,10.06,0,0,0,1.31,3.16ZM416,195.25l-55.36-50.07A15.73,15.73,0,0,0,346.08,121L327.27,45.19l59,57.53a10.22,10.22,0,0,0,9.19,16.38l21.31,75.71C416.49,195,416.22,195.09,416,195.25Z"/><path class="cls-2" d="M137.88,379.15a11.05,11.05,0,0,0,.11-1.28l1.61-.42q-9-5.67-17.31-11.09l.61,2.52c-.18.09-.35.19-.52.29l-8.8-8.59q-14.06-9.45-25.8-18.09l31.05,30.28a10.26,10.26,0,0,0,17.22,11.13l24.28,6.19q-7.7-4.57-14.89-9Z"/><path class="cls-3" d="M163.26,286.37l-4.83-1.89H173.5c.25.15,1.3.88,2.74,1.89h.31q-13.23-8.22-25.17-16.05v16.05Z"/><path class="cls-3" d="M186.51,231.6h69.33q6.24,1.38,8,5.2a16.51,16.51,0,0,1,1.73,6.58v43h35.36V242.69a53.76,53.76,0,0,0-.81-10.28,22.51,22.51,0,0,0-6.35-12.14l-5.09-5.08c1.85-2,3.54-4,5.09-6a35.47,35.47,0,0,0,3.92-6.36,30.42,30.42,0,0,0,2.43-7.62,56.18,56.18,0,0,0,.81-10.29q0-20.79-11.32-33.62t-34.9-12.83H151.38v86.36q15.74,10.16,35.13,21.81Zm0-59.63h67.25a12.46,12.46,0,0,1,6.59,1.5,10.73,10.73,0,0,1,3.7,3.7,12.82,12.82,0,0,1,1.61,4.51,25,25,0,0,1,.35,3.7,19,19,0,0,1-.35,3.35,13.4,13.4,0,0,1-1.38,3.93,10.56,10.56,0,0,1-3,3.46,10.73,10.73,0,0,1-5,2h-69.8Z"/><path class="cls-4" d="M151.38,239.15V224.82c-18-11.66-32.66-21.9-44.8-31.06v14.71C120.84,218.82,136,229.14,151.38,239.15Z"/><path class="cls-4" d="M41.13,152.58l4-15.93h0c-12.68-14-15.4-16.43-15.4-16.43,6.08-1.43,18.38,4.61,18.38,4.61l1.21-4.6-.23-.16a10.16,10.16,0,0,1-4.69-6.54,10.3,10.3,0,0,1,7.88-12.25,10,10,0,0,1,3.53-.11c-25.73-8.85-38-7.85-44.34-3.33C-.77,109.9,33.65,145.2,41.13,152.58Z"/><path class="cls-4" d="M363.26,335.53l1.57-1.61c-6.63-11.17-14.56-17.58-22.45-21.06l-2.07,9A41.09,41.09,0,0,1,363.26,335.53Z"/><path class="cls-4" d="M186.51,261.31c36.86,22.61,71.85,42.2,95.18,54.89l14.21-8.43c-44.37-23.46-80.23-43.64-109.39-61.14Z"/><path class="cls-4" d="M101.52,204.77V189.9c-10.7-8.28-19.3-15.63-26.49-22.27l-9.22,8.75C76.51,185.7,88.59,195.23,101.52,204.77Z"/><path class="cls-4" d="M62,173l9.33-8.85c-9.13-8.69-15.92-16.18-22.07-23l-4,15.72C50.25,162.13,55.87,167.53,62,173Z"/><path class="cls-4" d="M369.36,345.13c.21.46.36.94.55,1.41l.86-.39c-1.07-2.73-2.22-5.22-3.41-7.58l-1.05,1.08A41,41,0,0,1,369.36,345.13Z"/><path class="cls-4" d="M306.76,329.6a40.72,40.72,0,0,1,28.54-8.49l2.3-10c-16.94-5.16-32.35,1.64-32.35,1.64l-4.11-2.17L286.87,319C296,323.93,302.88,327.57,306.76,329.6Z"/><path class="cls-2" d="M59.68,102.48l-.6-.21Z"/><path class="cls-4" d="M59.68,102.48l-.6-.21Z"/><path class="cls-2" d="M65.81,176.38,75,167.63c-1.28-1.18-2.51-2.33-3.7-3.47L62,173Q63.88,174.69,65.81,176.38Z"/><path class="cls-4" d="M65.81,176.38,75,167.63c-1.28-1.18-2.51-2.33-3.7-3.47L62,173Q63.88,174.69,65.81,176.38Z"/><path class="cls-2" d="M52.33,101.28a10.3,10.3,0,0,0-7.88,12.25,10.16,10.16,0,0,0,4.69,6.54c-1.27-.94-7.62-6.15-3.21-13.84,3.71-6.48,11.06-4.64,13.15-4-1.13-.41-2.14-.73-3.22-1.1A10,10,0,0,0,52.33,101.28Z"/><path class="cls-4" d="M52.33,101.28a10.3,10.3,0,0,0-7.88,12.25,10.16,10.16,0,0,0,4.69,6.54c-1.27-.94-7.62-6.15-3.21-13.84,3.71-6.48,11.06-4.64,13.15-4-1.13-.41-2.14-.73-3.22-1.1A10,10,0,0,0,52.33,101.28Z"/><path class="cls-2" d="M286.87,319l14.27-8.47-5.24-2.77-14.21,8.43Z"/><path class="cls-4" d="M286.87,319l14.27-8.47-5.24-2.77-14.21,8.43Z"/><path class="cls-2" d="M106.58,208.47V193.76c-1.73-1.31-3.43-2.6-5.06-3.86v14.87Q104,206.63,106.58,208.47Z"/><path class="cls-4" d="M106.58,208.47V193.76c-1.73-1.31-3.43-2.6-5.06-3.86v14.87Q104,206.63,106.58,208.47Z"/><path class="cls-2" d="M42.55,154c.87,1,1.79,1.93,2.71,2.9l4-15.72-4.08-4.5-4,15.93Z"/><path class="cls-4" d="M42.55,154c.87,1,1.79,1.93,2.71,2.9l4-15.72-4.08-4.5-4,15.93Z"/><path class="cls-2" d="M340.31,321.87l2.07-9a41.71,41.71,0,0,0-4.78-1.79l-2.3,10A44.19,44.19,0,0,1,340.31,321.87Z"/><path class="cls-4" d="M340.31,321.87l2.07-9a41.71,41.71,0,0,0-4.78-1.79l-2.3,10A44.19,44.19,0,0,1,340.31,321.87Z"/><path class="cls-2" d="M363.26,335.53a39.18,39.18,0,0,1,3.05,4.12l1.05-1.08c-.82-1.63-1.66-3.19-2.53-4.65Z"/><path class="cls-4" d="M363.26,335.53a39.18,39.18,0,0,1,3.05,4.12l1.05-1.08c-.82-1.63-1.66-3.19-2.53-4.65Z"/><path class="cls-3" d="M151.38,224.82v14.33c11.69,7.6,23.5,15,35.13,22.16V246.63Q167.1,235,151.38,224.82Z"/><path class="cls-4" d="M151.38,224.82v14.33c11.69,7.6,23.5,15,35.13,22.16V246.63Q167.1,235,151.38,224.82Z"/><path class="cls-5" d="M347.92,358.51,333.83,373a10,10,0,0,1,1.12,2.81,10.38,10.38,0,0,1,.16,2.93,16.14,16.14,0,0,0,3.8-1.16,16.74,16.74,0,0,0,6.4-5.17,19.47,19.47,0,0,0,3-10.3A18.82,18.82,0,0,0,347.92,358.51Z"/><path class="cls-5" d="M330.38,369.24l15.69-16.08c-.28-.53-.54-1.06-.85-1.56a17.06,17.06,0,0,0-10.3-6.16l-5.35,23.39C329.84,369,330.12,369.08,330.38,369.24Z"/><path class="cls-5" d="M324.64,367.66l5.12-22.39a16.84,16.84,0,0,0-13.32,23.79,17.81,17.81,0,0,0,1.05,1.81,10.07,10.07,0,0,1,5.21-3A10,10,0,0,1,324.64,367.66Z"/><path class="cls-2" d="M335,375.76a10,10,0,0,0-1.12-2.81l14.09-14.44a19.49,19.49,0,0,0-1.85-5.35l-15.69,16.08c-.26-.16-.54-.27-.81-.41l5.35-23.39a16.51,16.51,0,0,0-5.16-.17l-5.12,22.39a10,10,0,0,0-1.94.22,10.07,10.07,0,0,0-5.21,3,16.93,16.93,0,0,0,17.62,7.82A10.38,10.38,0,0,0,335,375.76Z"/><path class="cls-5" d="M335,375.76a10,10,0,0,0-1.12-2.81l14.09-14.44a19.49,19.49,0,0,0-1.85-5.35l-15.69,16.08c-.26-.16-.54-.27-.81-.41l5.35-23.39a16.51,16.51,0,0,0-5.16-.17l-5.12,22.39a10,10,0,0,0-1.94.22,10.07,10.07,0,0,0-5.21,3,16.93,16.93,0,0,0,17.62,7.82A10.38,10.38,0,0,0,335,375.76Z"/><path class="cls-6" d="M366.31,339.65a39.18,39.18,0,0,0-3.05-4.12,41.09,41.09,0,0,0-22.95-13.66,44.19,44.19,0,0,0-5-.76,40.72,40.72,0,0,0-28.54,8.49l3.6,1.88-12.95,22.67c-1.76-.89-3.46-1.78-5.21-2.67a41,41,0,0,0-1.13,15.12,43.08,43.08,0,0,0,3.39,12.4,39.76,39.76,0,0,0,2,3.89,41.07,41.07,0,0,0,73.42-36.35c-.19-.47-.34-1-.55-1.41A41,41,0,0,0,366.31,339.65Zm-21,32.71a16.74,16.74,0,0,1-6.4,5.17,16.14,16.14,0,0,1-3.8,1.16,16.93,16.93,0,0,1-17.62-7.82,17.81,17.81,0,0,1-1.05-1.81,16.84,16.84,0,0,1,13.32-23.79,16.51,16.51,0,0,1,5.16.17,17.06,17.06,0,0,1,10.3,6.16c.35.45.6,1,.92,1.48a14.43,14.43,0,0,1,1.24,2,16.28,16.28,0,0,1,1,3A17,17,0,0,1,345.31,372.36Z"/><path class="cls-6" d="M66.18,208.71c8,6.48,17,13.53,27.16,21.1l27.16,19.64q14.28,10,30.88,20.87,12,7.83,25.17,16.05c23.13,14.38,49.22,29.64,78.59,45.57l5.2,2.8q15.33,8.25,31.86,16.74c1.75.89,3.45,1.78,5.21,2.67l12.95-22.67-3.6-1.88c-3.88-2-10.77-5.67-19.89-10.59l-5.18-2.81c-23.33-12.69-58.32-32.28-95.18-54.89-11.63-7.13-23.44-14.56-35.13-22.16-15.38-10-30.54-20.33-44.8-30.68q-2.55-1.84-5.06-3.7c-12.93-9.54-25-19.07-35.71-28.39Q63.87,174.69,62,173c-6.13-5.48-11.75-10.88-16.74-16.14-.92-1-1.84-1.94-2.71-2.9l-1.42-1.39C33.65,145.2-.77,109.9,11.52,97.84c.19-.18.34-.38.55-.56,0,0-10.43,4.36-12.07,32.61l1,12S-.27,147,15.57,163.83Z"/><path class="cls-7" d="M32.4,270.05A167.24,167.24,0,0,0,47.75,286.5L41,262.44c-3.55-4.11-5.86-7.13-7.49-9.07C24.75,243,27.37,244,27.37,244a28.61,28.61,0,0,1,8.62.75L31.3,228.05c-8.31-2.51-13-1.78-16.16.43.39-.2.64-.3.64-.3C2.38,235.64,32.4,270.05,32.4,270.05Z"/><path class="cls-7" d="M117.91,326.74l4,16.63c12.9,8.62,25.57,16.68,37,23.79l16.52-4.32C152.89,349.62,133.88,337.59,117.91,326.74Z"/><path class="cls-7" d="M204.37,379.28c-7.93-4.4-15.47-8.66-22.68-12.83l-16.75,4.38c6,3.68,11.62,7.06,16.64,10,7.73,3.56,13.76,6,17.8,7.53a29.48,29.48,0,0,1,44.16,1.36C227.66,362.82,204.37,379.28,204.37,379.28Z"/><path class="cls-7" d="M48.57,270.73,54.84,293c17.24,15.33,39.1,31.39,60.88,46.16l-4-16.73C79.07,299.82,60,282.61,48.57,270.73Z"/><path class="cls-2" d="M175.5,362.84,159,367.16c2,1.25,4,2.48,6,3.67l16.75-4.38C179.58,365.24,177.55,364,175.5,362.84Z"/><path class="cls-7" d="M175.5,362.84,159,367.16c2,1.25,4,2.48,6,3.67l16.75-4.38C179.58,365.24,177.55,364,175.5,362.84Z"/><path class="cls-2" d="M41,262.44l6.77,24.06q3.39,3.22,7.09,6.52l-6.27-22.29C45.56,267.6,43,264.83,41,262.44Z"/><path class="cls-7" d="M41,262.44l6.77,24.06q3.39,3.22,7.09,6.52l-6.27-22.29C45.56,267.6,43,264.83,41,262.44Z"/><path class="cls-2" d="M40.31,245.78,39,241.91s.06-1.37-1.31-8.25c-1.09-5.48-2-4.12-2-4.12-1.58-.6-3-1.08-4.4-1.49L36,244.72C38.44,245.23,40.31,245.78,40.31,245.78Z"/><path class="cls-7" d="M40.31,245.78,39,241.91s.06-1.37-1.31-8.25c-1.09-5.48-2-4.12-2-4.12-1.58-.6-3-1.08-4.4-1.49L36,244.72C38.44,245.23,40.31,245.78,40.31,245.78Z"/><path class="cls-2" d="M111.67,322.45l4,16.73q3.11,2.11,6.21,4.19l-4-16.63Q114.72,324.57,111.67,322.45Z"/><path class="cls-7" d="M111.67,322.45l4,16.73q3.11,2.11,6.21,4.19l-4-16.63Q114.72,324.57,111.67,322.45Z"/><path class="cls-8" d="M230.31,414.87A10.3,10.3,0,0,1,218.06,407a9.73,9.73,0,0,1-.22-2.26l-7.67-2a12.15,12.15,0,0,0,19.22,14.5,14.2,14.2,0,0,0,1.71-2.66C230.83,414.7,230.58,414.81,230.31,414.87Z"/><path class="cls-8" d="M222,396.55a12.13,12.13,0,0,0-4.65.41,12,12,0,0,0-3.25,1.6l5.05,1.28A10.46,10.46,0,0,1,222,396.55Z"/><path class="cls-2" d="M218.06,407a10.3,10.3,0,0,0,12.25,7.88c.27-.06.52-.17.79-.25a13.62,13.62,0,0,0,1.41-4.39,14.06,14.06,0,0,0-1.18-7.74,12.23,12.23,0,0,0-9.33-5.94,10.46,10.46,0,0,0-2.85,3.29l-5.05-1.28a12.2,12.2,0,0,0-3.93,4.22l7.67,2A9.73,9.73,0,0,0,218.06,407Z"/><path class="cls-8" d="M218.06,407a10.3,10.3,0,0,0,12.25,7.88c.27-.06.52-.17.79-.25a13.62,13.62,0,0,0,1.41-4.39,14.06,14.06,0,0,0-1.18-7.74,12.23,12.23,0,0,0-9.33-5.94,10.46,10.46,0,0,0-2.85,3.29l-5.05-1.28a12.2,12.2,0,0,0-3.93,4.22l7.67,2A9.73,9.73,0,0,0,218.06,407Z"/><path class="cls-6" d="M247.78,396.6a29.47,29.47,0,0,0-48.4-8.2c-.58.62-1.15,1.26-1.67,1.93,5.79,3.33,9.14,5.21,9.14,5.21L194,409.36l-2.7-1.5a29.51,29.51,0,1,0,58.1-6.47c-.1-.39-.17-.79-.29-1.18A28.28,28.28,0,0,0,247.78,396.6Zm-23.45,23.75a12.16,12.16,0,0,1-10.23-21.79,12,12,0,0,1,3.25-1.6,12.34,12.34,0,0,1,14,5.53,11.59,11.59,0,0,1,1.2,2.68,12,12,0,0,1-1.07,9.34,12.44,12.44,0,0,1-2.07,2.77A12.1,12.1,0,0,1,224.33,420.35Z"/><path class="cls-6" d="M206.85,395.54s-3.35-1.88-9.14-5.21c-4.2-2.42-9.71-5.64-16.13-9.46-5-3-10.62-6.36-16.64-10-1.95-1.19-3.93-2.42-6-3.67-11.48-7.11-24.15-15.17-37-23.79q-3.11-2.07-6.21-4.19C93.94,324.41,72.08,308.35,54.84,293q-3.69-3.28-7.09-6.52A167.24,167.24,0,0,1,32.4,270.05s-30-34.41-16.62-41.87c0,0-.25.1-.64.3-2.33,1.23-10.53,6.77-11,24.25l-1,7.69s-2.77,5.23,18.78,26.46c5.54,5.45,12.85,12.48,22.36,20.84,3.79,3.33,7.93,6.88,12.46,10.63,8.82,7.31,19.09,15.38,31.05,24.14q11.77,8.63,25.8,18.09c2.82,1.9,5.74,3.83,8.71,5.78q8.27,5.43,17.31,11.09,2.88,1.8,5.84,3.62,7.2,4.46,14.89,9,14.6,8.66,31,17.77l2.7,1.5Z"/><path class="cls-9" d="M120.5,249.45q-7.25-5.05-13.92-9.89v2.83a60,60,0,0,0,14.12,7.21Z"/><path class="cls-9" d="M93.34,229.81l-.26-.19a52.73,52.73,0,0,0,8.44,8.92v-2.68C98.72,233.81,96,231.79,93.34,229.81Z"/><path class="cls-2" d="M101.52,235.86v2.68a58.48,58.48,0,0,0,5.06,3.85v-2.83Z"/><path class="cls-9" d="M101.52,235.86v2.68a58.48,58.48,0,0,0,5.06,3.85v-2.83Z"/><path class="cls-6" d="M106.58,239.56q6.67,4.83,13.92,9.89L93.34,229.81c2.64,2,5.38,4,8.18,6.05Z"/><path class="cls-9" d="M106.58,239.56q6.67,4.83,13.92,9.89L93.34,229.81c2.64,2,5.38,4,8.18,6.05Z"/><path class="cls-10" d="M192.42,297.83s-10.91-7.76-16.18-11.46h-13Z"/><path class="cls-3" d="M158.43,284.48l4.83,1.89h13c-1.44-1-2.49-1.74-2.74-1.89Z"/><path class="cls-10" d="M158.43,284.48l4.83,1.89h13c-1.44-1-2.49-1.74-2.74-1.89Z"/><path class="cls-11" d="M66.18,208.71Q56,200.45,47.8,193.46L45,196.13c12,9.15,21.27,12.65,21.27,12.65Z"/><path class="cls-11" d="M33.56,181.07c-7.69-6.81-13.49-12.47-18-17.24l-.18-.16a126.21,126.21,0,0,0,17.38,21.74l1-4.11Z"/><path class="cls-11" d="M38.08,185.05,37,189.43c1.36,1.23,2.7,2.41,4,3.51l2.95-2.79C41.88,188.37,39.94,186.68,38.08,185.05Z"/><path class="cls-2" d="M43.94,190.15,41,192.94c1.36,1.14,2.69,2.19,4,3.19l2.81-2.67Z"/><path class="cls-11" d="M43.94,190.15,41,192.94c1.36,1.14,2.69,2.19,4,3.19l2.81-2.67Z"/><path class="cls-2" d="M38.08,185.05l-4.26-3.75-1,4.11q2.11,2.11,4.2,4Z"/><path class="cls-11" d="M38.08,185.05l-4.26-3.75-1,4.11q2.11,2.11,4.2,4Z"/><path class="cls-6" d="M33.56,181.07l.26.23,4.26,3.75c1.86,1.63,3.8,3.32,5.86,5.1l3.86,3.31q8.16,7,18.38,15.25L15.57,163.83C20.07,168.6,25.87,174.26,33.56,181.07Z"/><path class="cls-11" d="M33.56,181.07l.26.23,4.26,3.75c1.86,1.63,3.8,3.32,5.86,5.1l3.86,3.31q8.16,7,18.38,15.25L15.57,163.83C20.07,168.6,25.87,174.26,33.56,181.07Z"/><text class="cls-12" transform="translate(484.66 219.87) scale(0.98 1)">REPUBLIC OF</text><text class="cls-13" transform="translate(485.56 305) scale(1.05 1)"><tspan class="cls-14">C</tspan><tspan x="56.45" y="0">OM</tspan><tspan class="cls-15" x="199.17" y="0">P</tspan><tspan class="cls-16" x="249.74" y="0">ANY</tspan></text></g></g></svg>